HIERARCHY
ROOT Hips
{
	OFFSET -0.001795 -0.223333 0.028219
	CHANNELS 6 Xposition Yposition Zposition Zrotation Yrotation Xrotation 
	JOINT LeftUpLeg
	{
		OFFSET 0.069520 -0.091406 -0.006815
		CHANNELS 3 Zrotation Yrotation Xrotation
		JOINT LeftLeg
		{
			OFFSET 0.034277 -0.375199 -0.004496
			CHANNELS 3 Zrotation Yrotation Xrotation
			JOINT LeftFoot
			{
				OFFSET -0.013596 -0.397961 -0.043693
				CHANNELS 3 Zrotation Yrotation Xrotation
				JOINT LeftToe
				{
					OFFSET 0.026358 -0.055791 0.119288
					CHANNELS 3 Zrotation Yrotation Xrotation
					End Site
					{
						OFFSET 0.000000 0.000000 0.000000
					}
				}
			}
		}
	}
	JOINT RightUpLeg
	{
		OFFSET -0.067670 -0.090522 -0.004320
		CHANNELS 3 Zrotation Yrotation Xrotation
		JOINT RightLeg
		{
			OFFSET -0.038290 -0.382569 -0.008850
			CHANNELS 3 Zrotation Yrotation Xrotation
			JOINT RightFoot
			{
				OFFSET 0.015774 -0.398415 -0.042312
				CHANNELS 3 Zrotation Yrotation Xrotation
				JOINT RightToe
				{
					OFFSET -0.025372 -0.048144 0.123348
					CHANNELS 3 Zrotation Yrotation Xrotation
					End Site
					{
						OFFSET 0.000000 0.000000 0.000000
					}
				}
			}
		}
	}
	JOINT Spine
	{
		OFFSET -0.002533 0.108963 -0.026696
		CHANNELS 3 Zrotation Yrotation Xrotation
		JOINT Spine1
		{
			OFFSET 0.005487 0.135180 0.001092
			CHANNELS 3 Zrotation Yrotation Xrotation
			JOINT Spine2
			{
				OFFSET 0.001457 0.052922 0.025425
				CHANNELS 3 Zrotation Yrotation Xrotation
				JOINT Neck
				{
					OFFSET -0.002778 0.213870 -0.042857
					CHANNELS 3 Zrotation Yrotation Xrotation
					JOINT Head
					{
						OFFSET 0.005152 0.064970 0.051349
						CHANNELS 3 Zrotation Yrotation Xrotation
						End Site
						{
							OFFSET 0.000000 0.000000 0.000000
						}
					}
				}
				JOINT LeftShoulder
				{
					OFFSET 0.078845 0.121749 -0.034090
					CHANNELS 3 Zrotation Yrotation Xrotation
					JOINT LeftArm
					{
						OFFSET 0.090977 0.030469 -0.008868
						CHANNELS 3 Zrotation Yrotation Xrotation
						JOINT LeftForeArm
						{
							OFFSET 0.259612 -0.012772 -0.027456
							CHANNELS 3 Zrotation Yrotation Xrotation
							JOINT LeftHand
							{
								OFFSET 0.249234 0.008986 -0.001171
								CHANNELS 3 Zrotation Yrotation Xrotation
								End Site
								{
									OFFSET 0.000000 0.000000 0.000000
								}
							}
						}
					}
				}
				JOINT RightShoulder
				{
					OFFSET -0.081759 0.118833 -0.038615
					CHANNELS 3 Zrotation Yrotation Xrotation
					JOINT RightArm
					{
						OFFSET -0.096012 0.032551 -0.009143
						CHANNELS 3 Zrotation Yrotation Xrotation
						JOINT RightForeArm
						{
							OFFSET -0.253742 -0.013329 -0.021401
							CHANNELS 3 Zrotation Yrotation Xrotation
							JOINT RightHand
							{
								OFFSET -0.255298 0.007772 -0.005559
								CHANNELS 3 Zrotation Yrotation Xrotation
								End Site
								{
									OFFSET 0.000000 0.000000 0.000000
								}
							}
						}
					}
				}
			}
		}
	}
}
MOTION
Frames: 8
Frame Time: 0.050000
0.000000 0.949769 0.000000 -1.242393 -12.923936 4.002238 6.872663 0.023306 -1.522995 -3.533297 0.489912 -2.972054 7.994834 16.360559 13.671383 0.000000 0.000000 0.000000 -8.292639 0.570758 -1.411879 3.987510 -0.283575 0.908439 -5.217631 -16.221728 14.358218 0.000000 0.000000 0.000000 -1.124128 -0.105524 4.711195 4.872089 -0.985885 -21.029313 -0.410175 4.054360 28.419391 -1.015402 1.587675 -26.467409 0.000000 0.000000 0.000000 -14.227414 1.945383 -0.891427 -39.481474 -7.628221 -4.546479 -84.159511 -46.198092 48.593796 0.000000 0.000000 0.000000 9.036868 2.776487 0.315721 37.497841 2.045799 -4.790681 93.774218 44.334151 47.082283 0.000000 0.000000 0.000000 
-0.000450 0.948674 0.001946 -1.618863 -13.433737 4.456524 7.131284 0.039302 -1.326667 -3.721290 0.516723 -3.578037 8.125999 16.576952 12.628701 0.000000 0.000000 0.000000 -6.992436 0.490509 -1.029120 2.221896 -0.178301 -0.734225 -4.913363 -16.109151 16.006449 0.000000 0.000000 0.000000 -1.018268 -0.093863 4.011050 4.456568 -0.786670 -22.218316 0.826274 4.287627 29.829192 -1.904093 2.087768 -26.656393 0.000000 0.000000 0.000000 -15.814021 3.409734 -1.639001 -37.396513 -8.606112 -4.285416 -88.577488 -42.896948 48.580782 0.000000 0.000000 0.000000 7.537876 2.592469 0.365248 37.742704 0.390421 -5.408489 97.066468 42.619854 47.503213 0.000000 0.000000 0.000000 
-0.000998 0.948801 0.003192 -1.274093 -12.344224 4.733990 6.922211 -0.027285 -2.390551 -3.977906 0.537802 -1.640047 7.595409 15.821205 11.078926 0.000000 0.000000 0.000000 -7.319749 0.509168 -1.328640 2.184577 -0.177511 -0.566708 -5.373958 -16.629778 15.497062 0.000000 0.000000 0.000000 -1.596808 -0.045364 3.526658 5.342614 -1.089201 -20.997379 -0.005732 3.703723 29.083685 -1.165632 1.652829 -25.877928 0.000000 0.000000 0.000000 -16.127405 2.683483 -1.297382 -36.391628 -8.528310 -4.222180 -88.438812 -44.390787 49.816778 0.000000 0.000000 0.000000 8.120416 2.909965 0.464161 36.884388 -1.256219 -5.643659 96.831287 43.262127 47.972287 0.000000 0.000000 0.000000 
-0.001886 0.949176 0.003802 -1.292792 -12.675495 5.634615 7.146503 -0.049958 -3.143728 -4.128999 0.556913 -2.002475 7.645864 15.820341 12.657804 0.000000 0.000000 0.000000 -7.439649 0.550634 -1.806989 1.923421 -0.159847 -0.677874 -5.425612 -16.889202 16.332602 0.000000 0.000000 0.000000 -1.854131 0.004798 2.257689 5.576225 -1.154483 -20.834662 -0.209145 3.677868 29.520571 -1.426871 1.766042 -25.760680 0.000000 0.000000 0.000000 -16.437477 3.357074 -1.632816 -35.443203 -9.015664 -4.040605 -91.063518 -44.582310 52.019125 0.000000 0.000000 0.000000 6.901774 2.857463 0.517039 37.316001 -0.787817 -5.633652 99.692107 42.185296 48.781636 0.000000 0.000000 0.000000 
-0.003014 0.949932 0.003572 -1.193829 -12.707408 5.198458 6.861670 -0.045761 -2.839571 -3.858785 0.525874 -1.386650 7.706508 15.931231 12.399537 0.000000 0.000000 0.000000 -7.619895 0.550852 -1.646684 1.950077 -0.163447 -0.749070 -4.985558 -16.147594 15.964757 0.000000 0.000000 0.000000 -2.048859 -0.003612 3.036985 5.265513 -1.167763 -19.861151 -0.349344 3.530226 28.690613 -2.246813 2.223194 -24.992515 0.000000 0.000000 0.000000 -16.068755 2.867061 -1.359767 -35.617317 -9.223142 -3.928437 -94.250478 -46.816064 57.115470 0.000000 0.000000 0.000000 7.236005 3.371779 0.678878 36.682457 -0.881358 -5.472452 100.550960 42.619535 49.769197 0.000000 0.000000 0.000000 
-0.004287 0.950672 0.002254 -1.063449 -12.304467 5.385333 6.766602 -0.071805 -3.205536 -3.878471 0.523533 -1.680751 7.549273 15.689157 13.105310 0.000000 0.000000 0.000000 -7.580424 0.546072 -1.704812 1.745604 -0.164253 -1.289797 -5.080515 -16.341237 16.431794 0.000000 0.000000 0.000000 -2.653499 0.028481 3.495541 5.282130 -1.113835 -20.417804 -0.247716 3.541951 29.039473 -2.438786 2.388446 -25.473825 0.000000 0.000000 0.000000 -16.285112 2.329057 -1.127532 -35.252012 -10.267193 -3.647105 -98.366973 -47.185099 61.004399 0.000000 0.000000 0.000000 6.889799 4.131080 1.047950 37.264094 -0.828713 -5.579893 102.384330 43.390237 52.475001 0.000000 0.000000 0.000000 
-0.005829 0.950545 -0.000039 -1.071406 -11.469781 5.548885 7.024093 -0.094961 -3.819270 -4.102777 0.546264 -1.204087 7.456760 15.606606 12.963446 0.000000 0.000000 0.000000 -7.400489 0.531916 -1.961265 1.701868 -0.161661 -1.153145 -5.142537 -16.348890 16.353236 0.000000 0.000000 0.000000 -2.975580 0.044026 4.096873 5.353494 -1.152571 -19.990586 -0.290595 3.704640 28.699458 -2.565214 2.583200 -25.861603 0.000000 0.000000 0.000000 -16.417907 1.742120 -0.977074 -34.668279 -11.653812 -3.203845 -103.173567 -48.280370 66.361696 0.000000 0.000000 0.000000 6.665150 4.752623 1.380162 37.343469 -0.368724 -5.449002 103.937637 44.838243 56.094654 0.000000 0.000000 0.000000 
-0.007888 0.950616 -0.002700 -1.142670 -10.597995 5.903420 7.219035 -0.124163 -4.518208 -4.254820 0.559401 -0.848606 7.300791 15.423189 12.927407 0.000000 0.000000 0.000000 -7.082618 0.525790 -2.526238 1.622098 -0.155982 -1.012524 -5.355746 -16.613635 16.376034 0.000000 0.000000 0.000000 -3.293427 0.064353 4.727846 4.878419 -1.010783 -20.001485 -0.143461 3.788881 28.629877 -2.905304 2.874944 -25.348534 0.000000 0.000000 0.000000 -16.030803 -0.098567 -0.118304 -33.564276 -13.228148 -2.722559 -108.190632 -50.091888 73.130872 0.000000 0.000000 0.000000 6.450584 5.879538 1.907161 37.569399 0.577503 -5.222381 106.717993 46.856769 61.671157 0.000000 0.000000 0.000000 
